<?xml version="1.0" encoding="utf-8"?>
<!-- Generator: Adobe Illustrator 16.0.0, SVG Export Plug-In . SVG Version: 6.00 Build 0)  -->
<!DOCTYPE svg PUBLIC "-//W3C//DTD SVG 1.1//EN" "http://www.w3.org/Graphics/SVG/1.1/DTD/svg11.dtd">
<svg version="1.1" id="图层_1" xmlns="http://www.w3.org/2000/svg" xmlns:xlink="http://www.w3.org/1999/xlink" x="0px" y="0px"
	 width="211.412px" height="125.412px" viewBox="0 0 211.412 125.412" enable-background="new 0 0 211.412 125.412"
	 xml:space="preserve">
<g id="形状_3">
	<g>
		<path fill-rule="evenodd" clip-rule="evenodd" fill="#FFFFFF" d="M195.435,74.868c-1.198-2.274-5.967-9.243-16.11-11.907
			c-2.015-0.528-5.088-1.907-6.304-12.258c-0.3-2.552-2.521-19.413-14.71-22.414c-3.44-0.847-12.675-1.229-21.363,1.401
			c-5.2,1.574-5.97-0.277-11.207-6.304c-1.865-2.147-10.652-15.06-30.819-15.06c-4.734,0-17.327,1.575-27.318,12.958
			c-2.831,3.226-11.813,13.94-14.009,19.613c-0.313,0.809-0.713,3.891,1.751,5.604c2.465,1.711,5.39,0.438,5.954-0.351
			c0.565-0.789,10.182-18.859,23.465-25.216c11.756-5.625,20.766-0.579,24.166,1.401c4.87,2.836,10.812,8.646,14.009,11.208
			c3.197,2.562,5.095,4.397,7.705,4.903s6.424-2.754,16.11-2.802c9.686-0.048,15.828,3.802,17.511,14.359
			c0.479,3.005,2.598,11.732,5.954,15.06s4.647,2.259,8.755,4.903c4.109,2.645,11.095,7.035,11.908,18.211
			c0.409,5.619-0.855,21.014-10.507,21.014h-64.791c-1.496,0-1.751,2.508-1.751,3.854c0,1.344,0.37,3.15,1.4,3.15h70.045
			c4.005,0,8.074-3.908,10.156-9.105S203.145,89.5,195.435,74.868z M54.645,104.637c-3.419,3.102-23.936,11.768-30.819-7.705
			C23.132,94.971,17,69.379,33.982,61.559c5.12-2.357,15.606-0.567,21.014,4.554c1.158,1.097,2.802,0.389,2.802-2.452
			c0-2.644,0.567-3.995-1.751-5.604c-1.041-0.721-18.243-11.561-34.322,2.803c-11.938,10.664-11.413,39.373,0.7,50.082
			c4.693,4.148,16.766,9.74,33.271,1.4c1.305-0.66,2.451-2.232,2.451-5.254C58.147,104.069,57.772,101.801,54.645,104.637z
			 M103.327,108.84H76.709c1.188-1.271,17.651-18.592,20.313-22.414c5.263-7.561,7.453-18.91,3.152-25.917
			c-6.428-10.474-23.103-7.765-29.77-3.503c-3.171,2.029-2.802,3.741-2.802,5.604c0,1.863,0.482,4.492,2.802,2.803
			c3.764-2.74,6.266-3.548,10.507-4.553c7.544-1.789,12.614,4.018,12.959,7.705c1.19,12.729-7.998,20.506-25.917,38.523
			c-1.637,1.646-1.751,2.957-1.751,5.254c0,2.295,1.258,3.502,2.451,3.502h35.022c1.266,0,1.751-2.373,1.751-3.502
			S105.151,108.84,103.327,108.84z"/>
	</g>
	<g>
		<path fill="none" stroke="#FFFFFF" stroke-miterlimit="10" d="M195.435,74.868c-1.198-2.274-5.967-9.243-16.11-11.907
			c-2.015-0.528-5.088-1.907-6.304-12.258c-0.3-2.552-2.521-19.413-14.71-22.414c-3.44-0.847-12.675-1.229-21.363,1.401
			c-5.2,1.574-5.97-0.277-11.207-6.304c-1.865-2.147-10.652-15.06-30.819-15.06c-4.734,0-17.327,1.575-27.318,12.958
			c-2.831,3.226-11.813,13.94-14.009,19.613c-0.313,0.809-0.713,3.891,1.751,5.604c2.465,1.711,5.39,0.438,5.954-0.351
			c0.565-0.789,10.182-18.859,23.465-25.216c11.756-5.625,20.766-0.579,24.166,1.401c4.87,2.836,10.812,8.646,14.009,11.208
			c3.197,2.562,5.095,4.397,7.705,4.903s6.424-2.754,16.11-2.802c9.686-0.048,15.828,3.802,17.511,14.359
			c0.479,3.005,2.598,11.732,5.954,15.06s4.647,2.259,8.755,4.903c4.109,2.645,11.095,7.035,11.908,18.211
			c0.409,5.619-0.855,21.014-10.507,21.014h-64.791c-1.496,0-1.751,2.508-1.751,3.854c0,1.344,0.37,3.15,1.4,3.15h70.045
			c4.005,0,8.074-3.908,10.156-9.105S203.145,89.5,195.435,74.868z M54.645,104.637c-3.419,3.102-23.936,11.768-30.819-7.705
			C23.132,94.971,17,69.379,33.982,61.559c5.12-2.357,15.606-0.567,21.014,4.554c1.158,1.097,2.802,0.389,2.802-2.452
			c0-2.644,0.567-3.995-1.751-5.604c-1.041-0.721-18.243-11.561-34.322,2.803c-11.938,10.664-11.413,39.373,0.7,50.082
			c4.693,4.148,16.766,9.74,33.271,1.4c1.305-0.66,2.451-2.232,2.451-5.254C58.147,104.069,57.772,101.801,54.645,104.637z
			 M103.327,108.84H76.709c1.188-1.271,17.651-18.592,20.313-22.414c5.263-7.561,7.453-18.91,3.152-25.917
			c-6.428-10.474-23.103-7.765-29.77-3.503c-3.171,2.029-2.802,3.741-2.802,5.604c0,1.863,0.482,4.492,2.802,2.803
			c3.764-2.74,6.266-3.548,10.507-4.553c7.544-1.789,12.614,4.018,12.959,7.705c1.19,12.729-7.998,20.506-25.917,38.523
			c-1.637,1.646-1.751,2.957-1.751,5.254c0,2.295,1.258,3.502,2.451,3.502h35.022c1.266,0,1.751-2.373,1.751-3.502
			S105.151,108.84,103.327,108.84z"/>
	</g>
</g>
</svg>
